{
  "asset": {
    "version": "2.0",
    "generator": "THREE.GLTFExporter"
  },
  "scenes": [
    {
      "name": "Scene",
      "nodes": [
        0
      ]
    }
  ],
  "scene": 0,
  "nodes": [
    {
      "matrix": [
        1,
        1.4510241362713303e-33,
        1.1848511238355335e-17,
        0,
        0,
        -1,
        1.2246467991473532e-16,
        0,
        1.1848511238355335e-17,
        -1.2246467991473532e-16,
        -1,
        0,
        0,
        0,
        0,
        1
      ],
      "name": "Object_2",
      "extras": {
        "name": "airplane"
      },
      "mesh": 0
    }
  ],
  "bufferViews": [
    {
      "buffer": 0,
      "byteOffset": 0,
      "byteLength": 2688,
      "target": 34962,
      "byteStride": 12
    },
    {
      "buffer": 0,
      "byteOffset": 2688,
      "byteLength": 2688,
      "target": 34962,
      "byteStride": 12
    },
    {
      "buffer": 0,
      "byteOffset": 5376,
      "byteLength": 2160,
      "target": 34963
    }
  ],
  "buffers": [
    {
      "byteLength": 7536,
      "uri": "data:application/octet-stream;base64,"
    }
  ],
  "accessors": [
    {
      "bufferView": 0,
      "componentType": 5126,
      "count": 224,
      "max": [
        0.9989894032478333,
        1,
        1
      ],
      "min": [
        -0.998989462852478,
        -1,
        -1
      ],
      "type": "VEC3"
    },
    {
      "bufferView": 1,
      "componentType": 5126,
      "count": 224,
      "max": [
        12.46272087097168,
        2.500272750854492,
        16.942890167236328
      ],
      "min": [
        -12.46272087097168,
        -2.500272750854492,
        -16.942890167236328
      ],
      "type": "VEC3"
    },
    {
      "bufferView": 2,
      "componentType": 5125,
      "count": 540,
      "max": [
        223
      ],
      "min": [
        0
      ],
      "type": "SCALAR"
    }
  ],
  "materials": [
    {
      "pbrMetallicRoughness": {
        "metallicFactor": 0,
        "roughnessFactor": 0.6
      },
      "doubleSided": true,
      "name": "material_0"
    }
  ],
  "meshes": [
    {
      "primitives": [
        {
          "mode": 4,
          "attributes": {
            "NORMAL": 0,
            "POSITION": 1
          },
          "indices": 2,
          "material": 0
        }
      ]
    }
  ]
}